<svg version="1.1" id="Layer_1" xmlns="http://www.w3.org/2000/svg" xmlns:xlink="http://www.w3.org/1999/xlink" x="0px" y="0px"
	 width="100%" viewBox="0 0 304 224" enable-background="new 0 0 304 224" xml:space="preserve">
<path fill="#000000" opacity="1.000000" stroke="none" 
	d="
M188.000000,225.000000 
	C125.333344,225.000000 63.166683,225.000000 1.000017,225.000000 
	C1.000011,150.333344 1.000011,75.666702 1.000006,1.000037 
	C102.333305,1.000025 203.666611,1.000025 304.999939,1.000012 
	C304.999939,75.666634 304.999939,150.333267 304.999969,224.999939 
	C266.166656,225.000000 227.333328,225.000000 188.000000,225.000000 
M156.499817,154.635040 
	C162.831421,154.635590 169.206207,155.104294 175.484314,154.525055 
	C184.524063,153.691071 192.285767,155.228516 197.749313,163.182236 
	C198.025635,163.584488 198.467056,163.873566 198.832672,164.214203 
	C200.742676,165.993668 202.388855,165.376770 204.029602,163.740616 
	C205.624878,162.149765 205.660889,160.687668 204.200211,158.948456 
	C203.311798,157.890594 201.772232,157.058945 202.291870,154.867447 
	C206.665665,155.100861 206.659607,152.023529 206.651749,148.793411 
	C206.614105,133.297562 206.649918,117.801544 206.631271,102.305618 
	C206.623383,95.748444 206.170135,95.031334 199.434280,95.377548 
	C192.591232,95.729271 186.538177,94.941620 182.240051,88.829865 
	C180.125473,85.823021 176.967606,85.250061 173.402283,85.315514 
	C164.241119,85.483704 155.074295,85.422348 145.910797,85.337570 
	C143.122635,85.311783 140.613281,85.672539 138.663208,87.885193 
	C136.762329,90.042007 135.009689,89.530296 133.174667,87.670395 
	C129.430435,83.875366 125.671959,80.088226 121.776550,76.450775 
	C119.274574,74.114479 116.191933,74.948158 115.142982,78.005264 
	C114.377411,80.236504 116.046722,81.397026 117.261452,82.680077 
	C120.734467,86.348412 124.281342,89.946823 128.052689,93.834061 
	C124.138969,95.238029 122.530289,95.434349 120.017273,95.032982 
	C113.949844,94.063934 113.404221,94.466141 113.389679,100.514610 
	C113.352432,116.010475 113.346687,131.506531 113.381332,147.002396 
	C113.395599,153.380478 114.548401,154.564194 121.008972,154.606995 
	C132.505478,154.683182 144.002808,154.632660 156.499817,154.635040 
z"/>
<path fill="#000000" opacity="1.000000" stroke="none" 
	d="
M149.600372,138.482254 
	C155.104782,141.619110 160.523392,142.139130 166.244904,140.454208 
	C173.598358,138.288712 175.807495,139.347214 180.082733,146.814850 
	C178.905670,148.852509 176.862061,148.142410 175.185120,148.150940 
	C158.716812,148.234863 142.247284,148.149567 125.779991,148.308044 
	C121.660637,148.347687 119.663193,147.164581 119.729500,142.677353 
	C119.906418,130.702927 119.870415,118.723045 119.730103,106.747536 
	C119.684433,102.849838 121.210068,101.277184 125.057823,101.623886 
	C130.295624,102.095840 135.994644,99.974709 140.171707,105.512497 
	C142.016891,107.958786 142.565094,109.723236 141.464111,112.627747 
	C137.430344,123.269241 140.147644,131.792923 149.600372,138.482254 
z"/>
<path fill="#000000" opacity="1.000000" stroke="none" 
	d="
M170.761230,91.752823 
	C175.070877,91.267883 178.034241,92.802299 180.344391,95.772285 
	C183.866699,100.300644 188.252472,102.663391 194.170502,101.665192 
	C199.023376,100.846642 200.481110,103.160233 200.374374,107.868698 
	C200.110413,119.513237 200.309448,131.167786 200.250763,142.817963 
	C200.241165,144.721786 200.740936,147.100372 198.192383,147.894684 
	C196.022690,148.570938 193.873871,148.206985 192.167358,146.518234 
	C187.908997,142.304169 183.710037,138.029449 179.414749,133.853653 
	C177.810089,132.293640 177.973984,130.759476 178.771332,128.899750 
	C182.311691,120.642471 180.662018,113.114761 174.624481,106.833260 
	C168.394714,100.351753 160.739716,98.823494 152.196609,102.018173 
	C149.204987,103.136887 141.628540,98.354858 141.705185,95.291405 
	C141.783371,92.167290 144.463287,91.878769 146.828552,91.849213 
	C154.649887,91.751472 162.472748,91.775421 170.761230,91.752823 
z"/>
<path fill="#000000" opacity="1.000000" stroke="none" 
	d="
M146.708008,117.401100 
	C147.378769,115.538696 148.203873,113.951103 149.941193,115.639175 
	C155.514664,121.054665 160.944321,126.618164 166.472809,132.168060 
	C161.978210,135.564575 157.275101,135.672485 152.807800,132.809433 
	C147.679306,129.522614 145.326340,123.782242 146.708008,117.401100 
z"/>
<path fill="#000000" opacity="1.000000" stroke="none" 
	d="
M173.940094,122.410019 
	C173.443604,123.660172 173.047943,124.544655 172.399933,125.993263 
	C165.741333,120.944984 160.509430,114.949356 154.979858,109.080254 
	C163.650162,103.703331 172.998520,110.347778 173.940094,122.410019 
z"/>
</svg>