<svg version="1.1" id="Layer_1" xmlns="http://www.w3.org/2000/svg" xmlns:xlink="http://www.w3.org/1999/xlink" x="0px" y="0px"
	  viewBox="0 0 512 512" enable-background="new 0 0 512 512" xml:space="preserve">
<path fill="#FFFFFF" opacity="1.000000" stroke="none" 
	d="
M235.000000,513.000000 
	C157.034348,513.000000 79.068703,513.000000 1.051529,513.000000 
	C1.051529,342.442871 1.051529,171.885712 1.051529,1.000000 
	C82.021141,1.000000 163.042725,1.000000 244.434067,1.363866 
	C243.180328,2.332508 241.481094,2.787722 239.945084,3.565339 
	C225.480026,10.888397 217.148651,22.547136 217.087997,38.872509 
	C216.865799,98.684425 217.000000,158.497665 217.000000,218.310410 
	C217.000000,219.759186 217.000000,221.207947 217.000000,222.001984 
	C232.649124,222.001984 247.871368,222.529037 263.042328,221.871796 
	C283.094421,221.003098 296.926636,203.262268 296.959747,184.436768 
	C297.067322,123.291351 297.000000,62.145615 297.000000,1.000000 
	C368.967255,1.000000 440.934540,1.000000 512.950928,1.000000 
	C512.950928,171.556351 512.950928,342.112701 512.950928,513.000000 
	C436.312225,513.000000 359.623962,513.000000 282.608459,512.610962 
	C286.420135,511.482178 290.543121,510.634247 294.700684,510.021057 
	C313.764740,507.209351 331.880951,501.307037 349.311127,493.232727 
	C368.041748,484.556030 385.665924,474.027252 400.642242,459.709625 
	C411.334290,449.487823 422.149353,439.194397 431.407440,427.720886 
	C444.571411,411.406830 454.663300,393.049988 462.240021,373.379944 
	C470.551270,351.802979 475.591797,329.454132 476.838593,306.452972 
	C477.905853,286.764099 476.358978,267.194305 472.189301,247.727661 
	C466.389587,220.651276 455.872131,195.775101 441.061127,172.516861 
	C430.281067,155.588547 416.556915,141.240189 402.025543,127.648605 
	C392.507111,118.745758 380.961060,116.019341 368.538879,120.317627 
	C360.994324,122.928185 354.395630,127.437904 350.082062,134.570221 
	C347.589294,138.691833 345.021454,142.769211 342.589569,146.926254 
	C338.145874,154.522400 333.778046,162.162918 329.393158,169.759659 
	C383.319153,202.782394 414.354248,266.845398 393.824554,335.521088 
	C385.499481,363.369965 369.336670,386.580597 346.556915,404.920929 
	C320.715332,425.726318 290.809814,436.261536 258.010406,436.713226 
	C229.907990,437.100220 203.304062,429.326355 179.644073,413.801758 
	C151.458725,395.307831 131.685425,369.929138 120.998634,337.782196 
	C112.348549,311.761871 111.226585,285.276154 118.106087,258.806152 
	C128.191162,220.002258 151.004913,190.366409 185.472198,169.252090 
	C177.807510,156.459274 171.020279,143.414474 162.593658,131.532303 
	C153.529053,118.750511 132.673828,111.965736 118.567245,123.209267 
	C106.656059,132.702972 95.463135,143.510406 85.713280,155.204575 
	C71.779694,171.916794 60.998531,190.776352 52.848759,211.176300 
	C43.947803,233.456558 38.637241,256.498047 37.190430,280.275879 
	C36.092815,298.314697 37.389511,316.322632 40.776577,334.270538 
	C44.475460,353.870728 50.623505,372.542358 59.221485,390.348999 
	C66.238319,404.880981 75.105370,418.364746 85.332115,430.995026 
	C96.570389,444.874481 109.220795,457.111969 123.272797,468.093262 
	C138.377930,479.897552 154.832932,489.295227 172.410446,496.696594 
	C187.243027,502.942169 202.644318,507.484375 218.593796,510.020782 
	C224.081680,510.893494 229.532333,512.000183 235.000000,513.000000 
z"/>
<path fill="#000000" opacity="1.000000" stroke="none" 
	d="
M235.468658,513.000000 
	C229.532333,512.000183 224.081680,510.893494 218.593796,510.020782 
	C202.644318,507.484375 187.243027,502.942169 172.410446,496.696594 
	C154.832932,489.295227 138.377930,479.897552 123.272797,468.093262 
	C109.220795,457.111969 96.570389,444.874481 85.332115,430.995026 
	C75.105370,418.364746 66.238319,404.880981 59.221485,390.348999 
	C50.623505,372.542358 44.475460,353.870728 40.776577,334.270538 
	C37.389511,316.322632 36.092815,298.314697 37.190430,280.275879 
	C38.637241,256.498047 43.947803,233.456558 52.848759,211.176300 
	C60.998531,190.776352 71.779694,171.916794 85.713280,155.204575 
	C95.463135,143.510406 106.656059,132.702972 118.567245,123.209267 
	C132.673828,111.965736 153.529053,118.750511 162.593658,131.532303 
	C171.020279,143.414474 177.807510,156.459274 185.472198,169.252090 
	C151.004913,190.366409 128.191162,220.002258 118.106087,258.806152 
	C111.226585,285.276154 112.348549,311.761871 120.998634,337.782196 
	C131.685425,369.929138 151.458725,395.307831 179.644073,413.801758 
	C203.304062,429.326355 229.907990,437.100220 258.010406,436.713226 
	C290.809814,436.261536 320.715332,425.726318 346.556915,404.920929 
	C369.336670,386.580597 385.499481,363.369965 393.824554,335.521088 
	C414.354248,266.845398 383.319153,202.782394 329.393158,169.759659 
	C333.778046,162.162918 338.145874,154.522400 342.589569,146.926254 
	C345.021454,142.769211 347.589294,138.691833 350.082062,134.570221 
	C354.395630,127.437904 360.994324,122.928185 368.538879,120.317627 
	C380.961060,116.019341 392.507111,118.745758 402.025543,127.648605 
	C416.556915,141.240189 430.281067,155.588547 441.061127,172.516861 
	C455.872131,195.775101 466.389587,220.651276 472.189301,247.727661 
	C476.358978,267.194305 477.905853,286.764099 476.838593,306.452972 
	C475.591797,329.454132 470.551270,351.802979 462.240021,373.379944 
	C454.663300,393.049988 444.571411,411.406830 431.407440,427.720886 
	C422.149353,439.194397 411.334290,449.487823 400.642242,459.709625 
	C385.665924,474.027252 368.041748,484.556030 349.311127,493.232727 
	C331.880951,501.307037 313.764740,507.209351 294.700684,510.021057 
	C290.543121,510.634247 286.420135,511.482178 282.140625,512.610962 
	C266.645782,513.000000 251.291550,513.000000 235.468658,513.000000 
z"/>
<path fill="#000000" opacity="1.000000" stroke="none" 
	d="
M296.531342,1.000000 
	C297.000000,62.145615 297.067322,123.291351 296.959747,184.436768 
	C296.926636,203.262268 283.094421,221.003098 263.042328,221.871796 
	C247.871368,222.529037 232.649124,222.001984 217.000000,222.001984 
	C217.000000,221.207947 217.000000,219.759186 217.000000,218.310410 
	C217.000000,158.497665 216.865799,98.684425 217.087997,38.872509 
	C217.148651,22.547136 225.480026,10.888397 239.945084,3.565339 
	C241.481094,2.787722 243.180328,2.332508 244.901917,1.363866 
	C262.020905,1.000000 279.041779,1.000000 296.531342,1.000000 
z"/>
</svg>